<svg width="71" height="93" viewBox="0 0 71 93" fill="none" xmlns="http://www.w3.org/2000/svg">
<path d="M66 56C51.1667 56 21.1 56 17.5 56C13 56 6 57 5 64.5" stroke="#D9D9D9" stroke-width="10"/>
<path d="M19 71C19 69.8954 19.8954 69 21 69H39C40.1046 69 41 69.8954 41 71V90.8898C41 91.7334 40.0197 92.1979 39.3668 91.6637L31.2665 85.0362C30.5297 84.4334 29.4703 84.4334 28.7335 85.0362L20.6332 91.6637C19.9803 92.1979 19 91.7334 19 90.8898V71Z" fill="#D9D9D9"/>
<path d="M52 76L65 76C65.5523 76 66 75.5523 66 75L66 6.00001C66 5.44773 65.5523 5.00001 65 5.00001L18 5.00001C8.5 5.00001 5 12 5 17C5 32.8334 5 48.6667 5.00001 64.5C5.00001 67.6619 6.39967 71.6236 9.83122 74.1091" stroke="#D9D9D9" stroke-width="10" stroke-linecap="round"/>
</svg>
