<svg xmlns="http://www.w3.org/2000/svg" viewBox="972 1341 3330 2666" width="3330" height="2666">
  <g transform="translate(0.000000,5288.000000) scale(0.100000,-0.100000)" fill="#FFFFFF">
    <path d="M24205 39148 c-140 -11 -2681 -16 -3530 -8 -559 6 -552 6 -682 -66&#xA;-140 -78 -212 -172 -249 -330 -27 -112 -33 -1106 -39 -5704 -6 -4858 -11&#xA;-4597 85 -4684 82 -74 62 -73 2530 -75 1092 -1 2046 -4 2120 -7 361 -16 452&#xA;44 469 310 13 194 7 9978 -6 10186 -24 381 -103 423 -698 378z"></path>
    <path d="M29310 39139 c-767 -5 -1672 -6 -2010 -3 -736 7 -757 3 -809 -151&#xA;-55 -162 -67 -9469 -15 -10950 17 -474 15 -1210 -5 -1680 -6 -126 -16 -358&#xA;-22 -515 -20 -462 -18 -917 4 -958 49 -91 138 -57 228 86 23 37 65 96 94 132&#xA;29 36 86 117 127 180 42 63 105 147 140 186 36 39 97 114 135 165 135 180 604&#xA;661 938 962 215 193 719 564 1058 778 65 40 166 110 225 155 59 44 146 103&#xA;193 131 48 28 127 81 175 118 98 75 188 120 369 185 66 23 167 66 225 95 58&#xA;29 150 67 205 85 55 18 134 48 175 67 41 19 140 57 220 85 406 141 381 -30&#xA;377 2643 -5 3094 -8 2881 49 2982 87 152 105 154 1964 148 1733 -5 1841 -10&#xA;2250 -120 91 -24 203 -51 250 -60 246 -47 600 -221 855 -420 347 -271 651&#xA;-610 810 -904 36 -66 92 -158 126 -203 112 -153 153 -258 223 -568 12 -58 46&#xA;-179 73 -270 145 -473 144 -1223 -2 -1678 -44 -138 -60 -202 -96 -383 -47&#xA;-241 -91 -345 -308 -742 -99 -182 -151 -263 -222 -346 -30 -35 -78 -94 -107&#xA;-130 -82 -102 -106 -125 -267 -255 -577 -466 -949 -635 -1610 -731 -428 -62&#xA;-479 -66 -995 -75 -1370 -25 -1469 -29 -1740 -70 -69 -10 -181 -24 -250 -30&#xA;-178 -15 -287 -35 -388 -71 -48 -17 -134 -46 -192 -65 -480 -151 -781 -273&#xA;-1044 -421 -43 -25 -115 -60 -159 -79 -44 -19 -108 -53 -141 -76 -161 -110&#xA;-329 -219 -401 -262 -44 -26 -145 -99 -224 -162 -79 -63 -178 -138 -220 -167&#xA;-42 -28 -122 -95 -178 -148 -56 -54 -143 -129 -195 -167 -115 -85 -640 -607&#xA;-747 -742 -41 -52 -111 -133 -154 -180 -157 -169 -443 -576 -551 -785 -25 -49&#xA;-73 -124 -106 -165 -34 -42 -73 -105 -89 -145 -69 -165 -147 -317 -216 -420&#xA;-60 -91 -88 -147 -160 -330 -48 -121 -121 -292 -162 -380 -98 -208 -118 -263&#xA;-143 -387 -21 -104 -73 -295 -135 -488 -108 -341 -184 -821 -205 -1315 -7&#xA;-137 -18 -371 -26 -520 -9 -169 -18 -672 -24 -1345 -11 -1237 -26 -2146 -41&#xA;-2405 -18 -312 -95 -901 -144 -1094 -18 -75 -46 -195 -60 -268 -37 -188 -57&#xA;-254 -126 -414 -33 -78 -79 -194 -100 -256 -22 -63 -80 -192 -130 -289 -160&#xA;-311 -123 -349 276 -276 94 18 225 41 293 52 93 15 160 34 270 76 81 31 210&#xA;77 287 104 77 26 166 59 198 74 33 14 102 39 156 56 54 16 125 47 161 70 36&#xA;22 108 61 160 86 362 175 420 206 487 258 40 31 121 85 180 120 149 88 438&#xA;312 703 544 415 364 788 782 1068 1198 44 66 114 166 156 224 41 58 99 148&#xA;127 200 29 52 92 158 140 235 108 176 142 243 191 379 21 59 63 163 92 230 30&#xA;67 73 185 95 262 22 76 54 177 71 223 17 47 56 175 86 285 30 111 72 256 94&#xA;322 61 188 66 223 116 849 32 413 42 670 54 1385 12 808 9 792 227 1065 88&#xA;110 88 110 272 203 404 204 780 251 2176 272 1229 19 1480 38 1926 145 102 25&#xA;289 61 415 79 173 26 260 44 354 75 69 22 184 56 255 76 86 24 179 59 275 105&#xA;95 45 235 99 405 156 187 62 290 102 365 142 58 31 154 80 214 110 60 30 198&#xA;105 307 168 109 62 256 142 326 178 70 36 171 98 223 137 52 39 172 122 265&#xA;184 94 62 217 152 275 200 58 48 139 112 180 143 41 30 125 103 185 161 61 59&#xA;137 128 170 154 60 47 456 450 572 582 194 222 280 330 334 416 33 54 87 132&#xA;121 176 35 43 93 127 131 187 37 60 96 145 130 190 73 95 188 298 250 443 25&#xA;56 67 137 94 180 66 103 81 133 179 362 46 106 106 230 132 275 84 139 101&#xA;181 142 349 88 358 161 619 213 763 63 174 78 238 107 454 11 85 32 218 45&#xA;295 84 485 115 916 115 1630 0 480 -19 897 -55 1235 -17 165 -41 339 -66 493&#xA;-16 99 -38 263 -49 365 -25 230 -40 306 -85 435 -20 56 -62 199 -95 318 -33&#xA;118 -67 235 -75 260 -9 24 -34 118 -56 209 -39 161 -55 206 -157 440 -85 196&#xA;-158 372 -187 453 -15 43 -50 113 -78 155 -28 42 -104 182 -170 311 -65 129&#xA;-142 268 -172 310 -29 42 -68 108 -88 146 -81 163 -383 582 -538 750 -46 50&#xA;-106 119 -134 155 -44 58 -163 179 -630 638 -77 76 -173 164 -213 196 -39 31&#xA;-102 84 -140 117 -37 33 -123 99 -192 146 -69 48 -165 117 -215 153 -101 74&#xA;-190 130 -380 235 -71 40 -165 95 -207 123 -43 27 -110 62 -150 78 -105 39&#xA;-339 144 -513 230 -82 40 -226 100 -320 133 -278 97 -495 177 -581 215 -106&#xA;47 -195 69 -405 100 -96 14 -282 43 -414 65 -465 76 -644 94 -1190 121 -270&#xA;13 -4199 19 -5855 9z"></path>
    <path d="M16497 26783 c-2 -1 -381 -4 -843 -6 -768 -3 -844 -5 -894 -21 -188&#xA;-60 -327 -198 -376 -371 -44 -156 -44 -5336 0 -5472 43 -132 93 -155 371 -163&#xA;651 -21 9960 -5 10007 17 117 54 129 105 139 618 4 231 13 584 19 785 10 337&#xA;12 1910 5 3650 -3 858 -11 896 -186 951 -31 10 -8232 22 -8242 12z"></path>
    <path d="M10582 19189 c-253 -25 -478 -227 -537 -484 -36 -153 -27 -5379 9&#xA;-5463 56 -130 29 -127 1071 -128 484 0 2669 -4 4855 -9 3936 -8 4869 -4 6315&#xA;26 484 10 537 14 720 64 453 123 428 114 645 246 350 214 609 430 728 607 121&#xA;179 263 442 290 537 112 381 131 469 167 750 13 105 33 261 44 347 38 289 44&#xA;533 35 1413 -5 451 -9 1070 -9 1375 0 622 3 593 -74 663 -22 19 -57 41 -78 47&#xA;-45 14 -14043 23 -14181 9z"></path>
  </g>
</svg>